<?xml version="1.0" encoding="utf-8"?>
<!-- Generator: Adobe Illustrator 23.0.1, SVG Export Plug-In . SVG Version: 6.00 Build 0)  -->
<svg version="1.1" id="Layer_1" xmlns="http://www.w3.org/2000/svg" xmlns:xlink="http://www.w3.org/1999/xlink" x="0px" y="0px"
	 viewBox="0 0 273.8 62.29" style="enable-background:new 0 0 273.8 62.29;" xml:space="preserve">
<style type="text/css">
	.st0{fill:none;}
	.st1{fill:#474748;}
	.st2{fill:#414141;}
	.st3{fill:#2E388E;}
</style>
<g>
	<path class="st0" d="M26.69,3.79"/>
</g>
<g>
	<g>
		<path class="st1" d="M105.23,20.09c-1.25-3.12-2.49-6.33-2.54-6.38h-0.16c-0.05,0.05-1.3,3.22-2.54,6.38l-3.06,7.99h11.31
			L105.23,20.09z M94.43,34.62l-2.75,7.26h-7.63L98.58,5.56h8.15l14.53,36.33h-7.73l-2.75-7.26H94.43z"/>
	</g>
	<g>
		<path class="st1" d="M141.34,23.31c3.94,0,6.33-1.66,6.33-5.45c0-3.74-2.28-5.71-6.43-5.71h-6.07v11.16H141.34z M140.36,29.12
			h-2.34h-2.85v12.77h-7.21V5.56h12.87c8.98,0,14.22,4.57,14.22,11.94c0,5.24-2.7,8.77-7.37,10.22l8.56,14.17h-8.56L140.36,29.12z"
			/>
	</g>
	<g>
		<path class="st1" d="M168.48,30.78c0.57,3.58,3.74,5.45,8.2,5.45c3.95,0,6.38-1.5,6.38-4.51c0-4.31-4.88-4.25-9.39-5.35
			c-4.93-1.14-11.11-3.27-11.11-10.85c0-7.06,5.29-10.69,13.29-10.69c7.16,0,12.35,2.96,14.27,9.34l-6.9,1.82
			c-0.93-3.06-3.32-4.77-7.52-4.77c-4,0-5.76,1.56-5.76,4.1c0,3.63,3.84,4.31,8.93,5.35c5.4,1.04,11.52,3.11,11.52,11.05
			c0,7.21-5.09,10.85-13.7,10.85c-6.23,0-13.34-1.92-15.1-9.91L168.48,30.78z"/>
	</g>
	<g>
		<path class="st1" d="M231.43,31.3c-2.8,7.01-9.39,11.26-17.23,11.26c-10.74,0-18.79-7.58-18.79-18.94
			c0-11.16,8.04-18.79,18.79-18.79c8.41,0,14.43,4.57,16.81,10.28l-7.16,1.97c-1.66-2.8-4.83-5.45-9.96-5.45
			c-6.69,0-11.21,4.77-11.21,12.04c0,7.42,4.77,12.09,11.16,12.09c5.14,0,8.77-2.7,10.48-6.33L231.43,31.3z"/>
	</g>
	<g>
		<path class="st1" d="M254.84,35.76c6.69,0,11.78-4.62,11.78-12.04c0-7.42-5.09-12.09-11.78-12.09c-6.7,0-11.78,4.67-11.78,12.09
			C243.06,31.09,248.15,35.76,254.84,35.76 M254.84,4.83c10.95,0,19.05,7.68,19.05,18.89c0,11.16-8.1,18.84-19.05,18.84
			c-10.95,0-19.05-7.68-19.05-18.84C235.8,12.51,243.89,4.83,254.84,4.83"/>
	</g>
	<g>
		<path class="st2" d="M86.1,55.6c0.15,0.96,1.01,1.47,2.21,1.47c1.06,0,1.72-0.41,1.72-1.22c0-1.16-1.31-1.14-2.53-1.44
			c-1.33-0.31-2.99-0.88-2.99-2.92c0-1.9,1.42-2.88,3.58-2.88c1.93,0,3.33,0.79,3.84,2.51l-1.86,0.49
			c-0.25-0.82-0.89-1.29-2.03-1.29c-1.07,0-1.55,0.42-1.55,1.1c0,0.98,1.03,1.16,2.4,1.44c1.45,0.28,3.1,0.84,3.1,2.98
			c0,1.94-1.37,2.92-3.69,2.92c-1.68,0-3.59-0.52-4.07-2.67L86.1,55.6z"/>
	</g>
	<g>
		<path class="st2" d="M101.29,55.53c0-2.04,0.03-3.48,0.03-3.49h-0.03c-0.01,0.01-0.45,0.85-1.06,1.94L99,56.17h-1.1l-1.23-2.17
			c-0.63-1.12-1.05-1.96-1.06-1.97h-0.04c0,0.01,0.03,1.45,0.03,3.49v3.06h-1.94v-9.78h2.07l2.74,4.91h0.04l2.75-4.91h1.98v9.78
			h-1.94V55.53z"/>
	</g>
	<g>
		<path class="st2" d="M110.39,52.72c-0.34-0.84-0.67-1.71-0.69-1.72h-0.04c-0.01,0.01-0.35,0.87-0.68,1.72l-0.83,2.15h3.05
			L110.39,52.72z M107.48,56.63l-0.74,1.96h-2.05l3.91-9.78h2.19l3.91,9.78h-2.08l-0.74-1.96H107.48z"/>
	</g>
	<g>
		<path class="st2" d="M119.76,53.59c1.06,0,1.71-0.45,1.71-1.47c0-1.01-0.62-1.54-1.73-1.54h-1.63v3.01H119.76z M119.5,55.15h-0.63
			h-0.77v3.44h-1.94v-9.78h3.46c2.42,0,3.83,1.23,3.83,3.21c0,1.41-0.73,2.36-1.98,2.75l2.3,3.82h-2.3L119.5,55.15z"/>
	</g>
</g>
<g>
	<polygon class="st2" points="129.6,50.61 129.6,58.59 127.66,58.59 127.66,50.61 124.54,50.61 124.54,48.81 132.72,48.81 
		132.72,50.61 	"/>
</g>
<g>
	<polygon class="st2" points="144.5,54.51 140.19,54.51 140.19,58.59 138.25,58.59 138.25,48.81 140.19,48.81 140.19,52.64 
		144.5,52.64 144.5,48.81 146.44,48.81 146.44,58.59 144.5,58.59 	"/>
</g>
<g>
	<g>
		<path class="st2" d="M153.59,52.72c-0.34-0.84-0.67-1.71-0.69-1.72h-0.04c-0.01,0.01-0.35,0.87-0.68,1.72l-0.83,2.15h3.05
			L153.59,52.72z M150.69,56.63l-0.74,1.96h-2.05l3.91-9.78H154l3.91,9.78h-2.08l-0.74-1.96H150.69z"/>
	</g>
	<g>
		<path class="st2" d="M161.32,52.05h-0.04c0,0,0.03,1.19,0.03,2.43v4.11h-1.94v-9.78h1.97l4.68,6.44h0.04c0,0-0.03-1.23-0.03-2.31
			v-4.14h1.94v9.78H166L161.32,52.05z"/>
	</g>
	<g>
		<path class="st2" d="M173.91,56.78c1.7,0,3.28-0.91,3.28-3.05c0-2.13-1.58-3.13-3.31-3.13h-1.86v6.18H173.91z M173.99,48.81
			c2.95,0,5.16,1.96,5.16,4.93c0,2.99-2.22,4.85-5.13,4.85h-3.94v-9.78H173.99z"/>
	</g>
	<g>
		<path class="st2" d="M184.43,53.59c1.06,0,1.71-0.45,1.71-1.47c0-1.01-0.62-1.54-1.73-1.54h-1.63v3.01H184.43z M184.17,55.15
			h-0.63h-0.77v3.44h-1.94v-9.78h3.46c2.42,0,3.83,1.23,3.83,3.21c0,1.41-0.73,2.36-1.98,2.75l2.31,3.82h-2.31L184.17,55.15z"/>
	</g>
	<g>
		<path class="st2" d="M195.18,52.72c-0.34-0.84-0.67-1.71-0.69-1.72h-0.04c-0.01,0.01-0.35,0.87-0.68,1.72l-0.83,2.15h3.05
			L195.18,52.72z M192.27,56.63l-0.74,1.96h-2.05l3.91-9.78h2.19l3.91,9.78h-2.08l-0.74-1.96H192.27z"/>
	</g>
</g>
<g>
	<rect x="200.95" y="48.81" class="st2" width="1.94" height="9.78"/>
</g>
<g>
	<polygon class="st2" points="205,48.81 206.94,48.81 206.94,56.78 211.58,56.78 211.58,58.59 205,58.59 	"/>
</g>
<g>
	<g>
		<path class="st2" d="M218.51,55.6c0.15,0.96,1.01,1.47,2.21,1.47c1.06,0,1.72-0.41,1.72-1.22c0-1.16-1.31-1.14-2.53-1.44
			c-1.33-0.31-2.99-0.88-2.99-2.92c0-1.9,1.42-2.88,3.58-2.88c1.93,0,3.33,0.79,3.84,2.51l-1.86,0.49
			c-0.25-0.82-0.89-1.29-2.03-1.29c-1.07,0-1.55,0.42-1.55,1.1c0,0.98,1.03,1.16,2.4,1.44c1.45,0.28,3.1,0.84,3.1,2.98
			c0,1.94-1.37,2.92-3.69,2.92c-1.68,0-3.59-0.52-4.07-2.67L218.51,55.6z"/>
	</g>
	<g>
		<path class="st2" d="M230.77,58.59h-1.96V54.6l-3.69-5.8l2.25-0.01l1.73,2.85c0.41,0.66,0.71,1.19,0.73,1.2h0.04
			c0.01-0.01,0.31-0.54,0.71-1.19l1.79-2.85h2.08l-3.69,5.8V58.59z"/>
	</g>
	<g>
		<path class="st2" d="M237.03,55.6c0.15,0.96,1.01,1.47,2.21,1.47c1.06,0,1.72-0.41,1.72-1.22c0-1.16-1.31-1.14-2.53-1.44
			c-1.33-0.31-2.99-0.88-2.99-2.92c0-1.9,1.42-2.88,3.58-2.88c1.93,0,3.33,0.79,3.84,2.51l-1.86,0.49
			c-0.25-0.82-0.89-1.29-2.03-1.29c-1.07,0-1.55,0.42-1.55,1.1c0,0.98,1.03,1.16,2.4,1.44c1.45,0.28,3.1,0.84,3.1,2.98
			c0,1.94-1.37,2.92-3.69,2.92c-1.68,0-3.59-0.52-4.07-2.67L237.03,55.6z"/>
	</g>
</g>
<g>
	<polygon class="st2" points="249.07,50.61 249.07,58.59 247.13,58.59 247.13,50.61 244.01,50.61 244.01,48.81 252.19,48.81 
		252.19,50.61 	"/>
</g>
<g>
	<polygon class="st2" points="253.88,48.81 260.82,48.81 260.82,50.61 255.82,50.61 255.82,52.66 259.58,52.66 259.58,54.48 
		255.82,54.48 255.82,56.78 260.88,56.78 260.88,58.59 253.88,58.59 	"/>
</g>
<g>
	<g>
		<path class="st2" d="M270.38,55.53c0-2.04,0.03-3.48,0.03-3.49h-0.03c-0.01,0.01-0.45,0.85-1.06,1.94l-1.23,2.19h-1.1l-1.23-2.17
			c-0.63-1.12-1.05-1.96-1.06-1.97h-0.04c0,0.01,0.03,1.45,0.03,3.49v3.06h-1.94v-9.78h2.07l2.74,4.91h0.04l2.75-4.91h1.98v9.78
			h-1.94V55.53z"/>
	</g>
	<g>
		<path class="st3" d="M65.78,62.29h9.3L49.52,7.99c-2.15-4.56-6.74-7.47-11.78-7.47h-9.22c-0.78,0-1.49,0.46-1.8,1.18l-3.2,7.35
			c-0.56,1.3,0.39,2.74,1.8,2.74h9.59c2.41,0,4.61,1.39,5.63,3.58l20.71,44.05C62.08,61.17,63.84,62.29,65.78,62.29"/>
	</g>
	<g>
		<path class="st3" d="M31.83,29.44h5.65c1.41,0,2.36-1.45,1.8-2.74l-3.2-7.35c-0.31-0.72-1.02-1.18-1.8-1.18H29
			c-5.05,0-9.65,2.92-11.79,7.5L0.05,62.29h9.28c1.94,0,3.71-1.12,4.53-2.88l12.32-26.38C27.21,30.84,29.41,29.44,31.83,29.44"/>
	</g>
	<g>
		<path class="st3" d="M46.63,43.86l-3.2-7.35c-0.31-0.72-1.02-1.18-1.8-1.18h-5.68c-2.45,0-4.68,1.44-5.68,3.68L19.85,62.29h9.12
			c1.98,0,3.76-1.16,4.57-2.96l4.03-9.04c1-2.24,3.23-3.69,5.68-3.69h1.58C46.25,46.6,47.2,45.15,46.63,43.86"/>
	</g>
</g>
</svg>
